<svg xmlns="http://www.w3.org/2000/svg" width="20" height="20" fill="none"><g clip-path="url(#a)"><path fill="url(#b)" d="M20 10a10 10 0 1 0-20 0 10 10 0 0 0 20 0Zm-10 6.25v1.25H5.625a.63.63 0 0 0-.116.011 8.785 8.785 0 0 1-1.634-1.261H10ZM10 15H2.819a8.746 8.746 0 0 1-.727-1.25H10V15Zm-8.387-2.5a8.697 8.697 0 0 1-.276-1.25H10v1.25H1.613ZM1.25 10c0-.425.03-.841.087-1.25H10V10H1.25Zm.363-2.5c.128-.431.288-.85.48-1.25H10V7.5H1.613ZM2.819 5c.312-.45.667-.867 1.057-1.25H10V5H2.819ZM5.49 2.5A8.709 8.709 0 0 1 10 1.25V2.5H5.49Z"/></g><defs><linearGradient id="b" x1="10" x2="10" y1="0" y2="20" gradientUnits="userSpaceOnUse"><stop stop-color="#5E0DE1"/><stop offset="1" stop-color="#520EBF"/></linearGradient><clipPath id="a"><path fill="#fff" d="M0 0h20v20H0z"/></clipPath></defs></svg>