<svg xmlns="http://www.w3.org/2000/svg" width="20" height="20" fill="none"><g clip-path="url(#a)"><path fill="url(#b)" d="M10 6.25a1.875 1.875 0 1 0 0-3.75 1.875 1.875 0 0 0 0 3.75ZM15 10a1.875 1.875 0 1 0 0-3.75A1.875 1.875 0 0 0 15 10ZM6.875 8.75a1.875 1.875 0 1 1-3.75 0 1.875 1.875 0 0 1 3.75 0Zm.625 7.5a1.875 1.875 0 1 0 0-3.75 1.875 1.875 0 0 0 0 3.75Z"/><path fill="url(#c)" d="M20 10c0 3.938-2.332 3.231-4.459 2.588-1.266-.384-2.46-.747-3.041-.088-.754.854-.594 2.274-.439 3.65.222 1.969.434 3.85-2.061 3.85a10 10 0 1 1 10-10Zm-10 8.75c.764 0 .818-.214.819-.22.097-.183.155-.58.087-1.399-.017-.21-.046-.462-.076-.739-.065-.58-.14-1.256-.148-1.827-.012-.884.104-2.012.88-2.893.462-.52 1.057-.722 1.59-.772.506-.048 1.016.032 1.45.13.43.096.878.232 1.282.355l.035.01c.432.131.822.249 1.191.332.816.185 1.13.104 1.239.03.047-.032.401-.306.401-1.757A8.75 8.75 0 1 0 10 18.75Z"/></g><defs><linearGradient id="b" x1="10" x2="10" y1="2.5" y2="16.25" gradientUnits="userSpaceOnUse"><stop stop-color="#5E0DE1"/><stop offset="1" stop-color="#520EBF"/></linearGradient><linearGradient id="c" x1="10" x2="10" y1="0" y2="20" gradientUnits="userSpaceOnUse"><stop stop-color="#5E0DE1"/><stop offset="1" stop-color="#520EBF"/></linearGradient><clipPath id="a"><path fill="#fff" d="M0 0h20v20H0z"/></clipPath></defs></svg>