<svg width="32" height="32" viewBox="0 0 32 32" fill="none" xmlns="http://www.w3.org/2000/svg">
<g clip-path="url(#clip0_36_179)">
<circle cx="16" cy="16" r="16" fill="white"/>
<path d="M27.0044 21.6917L27.7614 19.454L24.5517 17.6009L25.015 16.7985L24.2126 16.3352L23.7493 17.1377L21.342 15.7478L22.1899 18.9121L27.0044 21.6917Z" fill="url(#paint0_linear_36_179)"/>
<path d="M21.1805 18.0759L20.5334 15.6611L7.06806 8.0417L4.99995 7.91756L6.14151 9.64654L21.1805 18.0759Z" fill="url(#paint1_linear_36_179)"/>
<path d="M27.7614 19.454L27.8864 19.2375L28.0639 19.34L27.9982 19.5342L27.7614 19.454ZM27.0044 21.6917L27.2412 21.7718L27.1435 22.0607L26.8794 21.9082L27.0044 21.6917ZM22.1899 18.9121L22.0649 19.1286L21.9752 19.0768L21.9484 18.9768L22.1899 18.9121ZM21.342 15.7478L21.1006 15.8125L20.9443 15.2295L21.467 15.5313L21.342 15.7478ZM23.7493 17.1377L23.9658 17.2627L23.8408 17.4792L23.6243 17.3542L23.7493 17.1377ZM24.2126 16.3352L23.9961 16.2102L24.1211 15.9937L24.3376 16.1187L24.2126 16.3352ZM25.015 16.7985L25.14 16.582L25.3565 16.707L25.2315 16.9235L25.015 16.7985ZM24.5517 17.6009L24.4267 17.8174L24.2102 17.6924L24.3352 17.4759L24.5517 17.6009ZM20.5334 15.6611L20.6565 15.4435L20.7478 15.4951L20.7749 15.5964L20.5334 15.6611ZM21.1805 18.0759L21.4219 18.0112L21.5754 18.5838L21.0582 18.294L21.1805 18.0759ZM6.14151 9.64654L6.01928 9.86462L5.96633 9.83494L5.93288 9.78428L6.14151 9.64654ZM4.99995 7.91756L4.79132 8.05531C4.73915 7.97629 4.7361 7.87457 4.78344 7.79256C4.83079 7.71056 4.9204 7.66234 5.01493 7.66801L4.99995 7.91756ZM7.06806 8.0417L7.08304 7.79215L7.14081 7.79561L7.19118 7.82412L7.06806 8.0417ZM27.9982 19.5342L27.2412 21.7718L26.7676 21.6116L27.5246 19.3739L27.9982 19.5342ZM26.8794 21.9082L22.0649 19.1286L22.3149 18.6956L27.1294 21.4752L26.8794 21.9082ZM21.9484 18.9768L21.1006 15.8125L21.5835 15.6831L22.4314 18.8474L21.9484 18.9768ZM21.467 15.5313L23.8743 16.9212L23.6243 17.3542L21.217 15.9643L21.467 15.5313ZM23.5328 17.0127L23.9961 16.2102L24.4291 16.4602L23.9658 17.2627L23.5328 17.0127ZM24.3376 16.1187L25.14 16.582L24.89 17.015L24.0876 16.5517L24.3376 16.1187ZM25.2315 16.9235L24.7682 17.7259L24.3352 17.4759L24.7985 16.6735L25.2315 16.9235ZM24.6767 17.3844L27.8864 19.2375L27.6364 19.6706L24.4267 17.8174L24.6767 17.3844ZM20.7749 15.5964L21.4219 18.0112L20.939 18.1406L20.2919 15.7258L20.7749 15.5964ZM21.0582 18.294L6.01928 9.86462L6.26374 9.42846L21.3027 17.8578L21.0582 18.294ZM5.93288 9.78428L4.79132 8.05531L5.20858 7.77982L6.35014 9.50879L5.93288 9.78428ZM5.01493 7.66801L7.08304 7.79215L7.05308 8.29125L4.98497 8.16711L5.01493 7.66801ZM7.19118 7.82412L20.6565 15.4435L20.4103 15.8786L6.94494 8.25928L7.19118 7.82412Z" fill="url(#paint2_linear_36_179)"/>
<path d="M10.1833 26.9311L8.40885 25.3716L10.262 22.162L9.45954 21.6987L9.92281 20.8963L10.7252 21.3596L12.1151 18.9523L12.9629 22.1165L10.1833 26.9311Z" fill="url(#paint3_linear_36_179)"/>
<path d="M13.419 20.8876L12.772 18.4728L20.6236 5.1416L22.3526 4.00004L22.2285 6.06816L13.419 20.8876Z" fill="url(#paint4_linear_36_179)"/>
<path d="M8.40885 25.3716L8.19234 25.2466L8.08987 25.4241L8.24382 25.5594L8.40885 25.3716ZM10.1833 26.9311L10.0182 27.1188L10.2473 27.3201L10.3998 27.0561L10.1833 26.9311ZM12.9629 22.1165L13.1794 22.2415L13.2312 22.1519L13.2044 22.0518L12.9629 22.1165ZM12.1151 18.9523L12.3565 18.8876L12.2003 18.3046L11.8986 18.8273L12.1151 18.9523ZM10.7252 21.3596L10.6002 21.5761L10.8167 21.7011L10.9417 21.4846L10.7252 21.3596ZM9.92281 20.8963L10.0478 20.6798L9.83131 20.5548L9.70631 20.7713L9.92281 20.8963ZM9.45954 21.6987L9.24303 21.5737L9.11803 21.7902L9.33454 21.9152L9.45954 21.6987ZM10.262 22.162L10.4785 22.287L10.6035 22.0705L10.387 21.9455L10.262 22.162ZM12.772 18.4728L12.5566 18.346L12.5034 18.4363L12.5305 18.5375L12.772 18.4728ZM13.419 20.8876L13.1775 20.9524L13.331 21.525L13.6339 21.0154L13.419 20.8876ZM22.2285 6.06816L22.4434 6.1959L22.4744 6.14372L22.478 6.08313L22.2285 6.06816ZM22.3526 4.00004L22.6021 4.01502C22.6078 3.9205 22.5596 3.83088 22.4776 3.78353C22.3956 3.73619 22.2939 3.73924 22.2148 3.79141L22.3526 4.00004ZM20.6236 5.1416L20.4859 4.93297L20.4376 4.96486L20.4082 5.01473L20.6236 5.1416ZM8.24382 25.5594L10.0182 27.1188L10.3483 26.7433L8.57388 25.1839L8.24382 25.5594ZM10.3998 27.0561L13.1794 22.2415L12.7464 21.9915L9.96675 26.8061L10.3998 27.0561ZM13.2044 22.0518L12.3565 18.8876L11.8736 19.017L12.7214 22.1812L13.2044 22.0518ZM11.8986 18.8273L10.5087 21.2346L10.9417 21.4846L12.3316 19.0773L11.8986 18.8273ZM10.8502 21.143L10.0478 20.6798L9.79781 21.1128L10.6002 21.5761L10.8502 21.143ZM9.70631 20.7713L9.24303 21.5737L9.67604 21.8237L10.1393 21.0213L9.70631 20.7713ZM9.33454 21.9152L10.137 22.3785L10.387 21.9455L9.58454 21.4822L9.33454 21.9152ZM10.0454 22.037L8.19234 25.2466L8.62536 25.4966L10.4785 22.287L10.0454 22.037ZM12.5305 18.5375L13.1775 20.9524L13.6605 20.8229L13.0135 18.4081L12.5305 18.5375ZM13.6339 21.0154L22.4434 6.1959L22.0136 5.94041L13.2041 20.7599L13.6339 21.0154ZM22.478 6.08313L22.6021 4.01502L22.103 3.98506L21.9789 6.05318L22.478 6.08313ZM22.2148 3.79141L20.4859 4.93297L20.7614 5.35023L22.4903 4.20867L22.2148 3.79141ZM20.4082 5.01473L12.5566 18.346L12.9874 18.5997L20.839 5.26847L20.4082 5.01473Z" fill="url(#paint5_linear_36_179)"/>
</g>
<defs>
<linearGradient id="paint0_linear_36_179" x1="4.99995" y1="7.91756" x2="27.5283" y2="20.5161" gradientUnits="userSpaceOnUse">
<stop stop-color="#4C0FB0"/>
<stop offset="1" stop-color="#280461"/>
</linearGradient>
<linearGradient id="paint1_linear_36_179" x1="4.99995" y1="7.91756" x2="27.5283" y2="20.5161" gradientUnits="userSpaceOnUse">
<stop stop-color="#4C0FB0"/>
<stop offset="1" stop-color="#280461"/>
</linearGradient>
<linearGradient id="paint2_linear_36_179" x1="4.99995" y1="7.91756" x2="27.5283" y2="20.5161" gradientUnits="userSpaceOnUse">
<stop stop-color="#4C0FB0"/>
<stop offset="1" stop-color="#280461"/>
</linearGradient>
<linearGradient id="paint3_linear_36_179" x1="22.3526" y1="4.00004" x2="9.14171" y2="26.1749" gradientUnits="userSpaceOnUse">
<stop stop-color="#7124EC"/>
<stop offset="1" stop-color="#3F0A95"/>
</linearGradient>
<linearGradient id="paint4_linear_36_179" x1="22.3526" y1="4.00004" x2="9.14171" y2="26.1749" gradientUnits="userSpaceOnUse">
<stop stop-color="#7124EC"/>
<stop offset="1" stop-color="#3F0A95"/>
</linearGradient>
<linearGradient id="paint5_linear_36_179" x1="22.3526" y1="4.00004" x2="9.14171" y2="26.1749" gradientUnits="userSpaceOnUse">
<stop stop-color="#7124EC"/>
<stop offset="1" stop-color="#3F0A95"/>
</linearGradient>
<clipPath id="clip0_36_179">
<rect width="32" height="32" fill="white"/>
</clipPath>
</defs>
</svg>
