<svg width="263" height="38" viewBox="0 0 263 38" fill="none" xmlns="http://www.w3.org/2000/svg">
<g clip-path="url(#clip0_2_208)">
<path d="M8.86406 8.33367C10.2801 8.33367 11.5161 8.6089 12.5721 9.15935C13.6521 9.70981 14.4801 10.4323 15.0561 11.3268V8.6089H21.2121V27.7717C21.2121 29.5378 20.8401 31.1318 20.0961 32.5538C19.3761 33.9988 18.2601 35.1455 16.7481 35.9942C15.2601 36.8428 13.4001 37.2671 11.1681 37.2671C8.19206 37.2671 5.78006 36.5905 3.93206 35.2373C2.08406 33.907 1.02806 32.0951 0.764057 29.8015H6.84806C7.04006 30.5355 7.49606 31.1089 8.21606 31.5217C8.93606 31.9575 9.82406 32.1754 10.8801 32.1754C12.1521 32.1754 13.1601 31.8199 13.9041 31.1089C14.6721 30.4208 15.0561 29.3084 15.0561 27.7717V25.0538C14.4561 25.9483 13.6281 26.6823 12.5721 27.2557C11.5161 27.8061 10.2801 28.0813 8.86406 28.0813C7.20806 28.0813 5.70806 27.68 4.36406 26.8772C3.02006 26.0515 1.95206 24.8933 1.16006 23.4024C0.392057 21.8887 0.00805664 20.1456 0.00805664 18.1731C0.00805664 16.2006 0.392057 14.469 1.16006 12.9782C1.95206 11.4873 3.02006 10.3405 4.36406 9.53779C5.70806 8.73504 7.20806 8.33367 8.86406 8.33367ZM15.0561 18.2075C15.0561 16.7396 14.6241 15.5814 13.7601 14.7327C12.9201 13.8841 11.8881 13.4598 10.6641 13.4598C9.44006 13.4598 8.39606 13.8841 7.53206 14.7327C6.69206 15.5584 6.27206 16.7052 6.27206 18.1731C6.27206 19.641 6.69206 20.8107 7.53206 21.6823C8.39606 22.5309 9.44006 22.9552 10.6641 22.9552C11.8881 22.9552 12.9201 22.5309 13.7601 21.6823C14.6241 20.8336 15.0561 19.6754 15.0561 18.2075ZM24.4417 18.1731C24.4417 16.2006 24.8257 14.469 25.5937 12.9782C26.3857 11.4873 27.4537 10.3405 28.7977 9.53779C30.1417 8.73504 31.6417 8.33367 33.2977 8.33367C34.7137 8.33367 35.9497 8.6089 37.0057 9.15935C38.0857 9.70981 38.9137 10.4323 39.4897 11.3268V8.6089H45.6457V27.8061H39.4897V25.0882C38.8897 25.9827 38.0497 26.7052 36.9697 27.2557C35.9137 27.8061 34.6777 28.0813 33.2617 28.0813C31.6297 28.0813 30.1417 27.68 28.7977 26.8772C27.4537 26.0515 26.3857 24.8933 25.5937 23.4024C24.8257 21.8887 24.4417 20.1456 24.4417 18.1731ZM39.4897 18.2075C39.4897 16.7396 39.0577 15.5814 38.1937 14.7327C37.3537 13.8841 36.3217 13.4598 35.0977 13.4598C33.8737 13.4598 32.8297 13.8841 31.9657 14.7327C31.1257 15.5584 30.7057 16.7052 30.7057 18.1731C30.7057 19.641 31.1257 20.8107 31.9657 21.6823C32.8297 22.5309 33.8737 22.9552 35.0977 22.9552C36.3217 22.9552 37.3537 22.5309 38.1937 21.6823C39.0577 20.8336 39.4897 19.6754 39.4897 18.2075ZM56.2553 2.34744V27.8061H50.0993V2.34744H56.2553ZM59.4925 18.1731C59.4925 16.2006 59.8765 14.469 60.6445 12.9782C61.4365 11.4873 62.5045 10.3405 63.8485 9.53779C65.1925 8.73504 66.6925 8.33367 68.3484 8.33367C69.7645 8.33367 71.0005 8.6089 72.0564 9.15935C73.1365 9.70981 73.9645 10.4323 74.5405 11.3268V8.6089H80.6965V27.8061H74.5405V25.0882C73.9405 25.9827 73.1005 26.7052 72.0205 27.2557C70.9645 27.8061 69.7285 28.0813 68.3125 28.0813C66.6805 28.0813 65.1925 27.68 63.8485 26.8772C62.5045 26.0515 61.4365 24.8933 60.6445 23.4024C59.8765 21.8887 59.4925 20.1456 59.4925 18.1731ZM74.5405 18.2075C74.5405 16.7396 74.1085 15.5814 73.2445 14.7327C72.4045 13.8841 71.3725 13.4598 70.1485 13.4598C68.9245 13.4598 67.8805 13.8841 67.0165 14.7327C66.1765 15.5584 65.7565 16.7052 65.7565 18.1731C65.7565 19.641 66.1765 20.8107 67.0165 21.6823C67.8805 22.5309 68.9245 22.9552 70.1485 22.9552C71.3725 22.9552 72.4045 22.5309 73.2445 21.6823C74.1085 20.8336 74.5405 19.6754 74.5405 18.2075ZM97.0301 27.8061L93.1781 22.4736L89.9381 27.8061H83.2781L89.9021 18.0011L83.0981 8.6089H90.0101L93.8621 13.9071L97.1021 8.6089H103.762L97.0301 18.2763L103.942 27.8061H97.0301ZM126.834 8.6089L114.234 36.9231H107.61L112.218 27.1524L104.046 8.6089H110.922L115.566 20.6158L120.174 8.6089H126.834ZM130.464 3.65478H136.764L132.732 12.8749H128.592L130.464 3.65478ZM148.552 28.0813C146.8 28.0813 145.24 27.7946 143.872 27.2212C142.504 26.6479 141.424 25.868 140.632 24.8818C139.84 23.8726 139.396 22.7488 139.3 21.5103H145.384C145.456 22.1754 145.78 22.7144 146.356 23.1272C146.932 23.5401 147.64 23.7465 148.48 23.7465C149.248 23.7465 149.836 23.6089 150.244 23.3336C150.676 23.0355 150.892 22.657 150.892 22.1983C150.892 21.6479 150.592 21.2465 149.992 20.9942C149.392 20.719 148.42 20.4208 147.076 20.0997C145.636 19.7786 144.436 19.446 143.476 19.102C142.516 18.735 141.688 18.1731 140.992 17.4162C140.296 16.6364 139.948 15.5928 139.948 14.2855C139.948 13.1846 140.26 12.1869 140.884 11.2924C141.532 10.3749 142.468 9.65247 143.692 9.12495C144.94 8.59743 146.416 8.33367 148.12 8.33367C150.64 8.33367 152.62 8.93 154.06 10.1227C155.524 11.3153 156.364 12.8979 156.58 14.8704H150.892C150.796 14.2052 150.484 13.6777 149.956 13.2878C149.452 12.8979 148.78 12.7029 147.94 12.7029C147.22 12.7029 146.668 12.8405 146.284 13.1158C145.9 13.3681 145.708 13.7236 145.708 14.1823C145.708 14.7327 146.008 15.1456 146.608 15.4208C147.232 15.696 148.192 15.9713 149.488 16.2465C150.976 16.6135 152.188 16.9804 153.124 17.3474C154.06 17.6914 154.876 18.2648 155.572 19.0676C156.292 19.8474 156.664 20.9025 156.688 22.2327C156.688 23.3566 156.352 24.3657 155.68 25.2602C155.032 26.1318 154.084 26.8199 152.836 27.3245C151.612 27.829 150.184 28.0813 148.552 28.0813ZM178.164 13.4942H174.852V27.8061H168.696V13.4942H166.464V8.6089H168.696V8.05844C168.696 5.69606 169.404 3.90707 170.82 2.69148C172.236 1.45295 174.312 0.833679 177.048 0.833679C177.504 0.833679 177.84 0.845146 178.056 0.868082V5.85661C176.88 5.7878 176.052 5.94835 175.572 6.33826C175.092 6.72817 174.852 7.42771 174.852 8.43688V8.6089H178.164V13.4942ZM190.2 28.0813C188.232 28.0813 186.456 27.68 184.872 26.8772C183.312 26.0745 182.076 24.9277 181.164 23.4369C180.276 21.946 179.832 20.2029 179.832 18.2075C179.832 16.235 180.288 14.5034 181.2 13.0126C182.112 11.4988 183.36 10.3405 184.944 9.53779C186.528 8.73504 188.304 8.33367 190.272 8.33367C192.24 8.33367 194.016 8.73504 195.6 9.53779C197.184 10.3405 198.432 11.4988 199.344 13.0126C200.256 14.5034 200.712 16.235 200.712 18.2075C200.712 20.18 200.244 21.9231 199.308 23.4369C198.396 24.9277 197.136 26.0745 195.528 26.8772C193.944 27.68 192.168 28.0813 190.2 28.0813ZM190.2 22.9896C191.376 22.9896 192.372 22.5768 193.188 21.7511C194.028 20.9254 194.448 19.7442 194.448 18.2075C194.448 16.6708 194.04 15.4896 193.224 14.6639C192.432 13.8382 191.448 13.4254 190.272 13.4254C189.072 13.4254 188.076 13.8382 187.284 14.6639C186.492 15.4667 186.096 16.6479 186.096 18.2075C186.096 19.7442 186.48 20.9254 187.248 21.7511C188.04 22.5768 189.024 22.9896 190.2 22.9896ZM210.134 11.8084C210.854 10.7534 211.754 9.9277 212.834 9.33137C213.914 8.71211 215.114 8.40247 216.434 8.40247V14.6295H214.742C213.206 14.6295 212.054 14.9506 211.286 15.5928C210.518 16.2121 210.134 17.313 210.134 18.8956V27.8061H203.978V8.6089H210.134V11.8084ZM227.009 8.33367C228.425 8.33367 229.661 8.6089 230.717 9.15935C231.797 9.70981 232.625 10.4323 233.201 11.3268V8.6089H239.357V27.7717C239.357 29.5378 238.985 31.1318 238.241 32.5538C237.521 33.9988 236.405 35.1455 234.893 35.9942C233.405 36.8428 231.545 37.2671 229.313 37.2671C226.337 37.2671 223.925 36.5905 222.077 35.2373C220.229 33.907 219.173 32.0951 218.909 29.8015H224.993C225.185 30.5355 225.641 31.1089 226.361 31.5217C227.081 31.9575 227.969 32.1754 229.025 32.1754C230.297 32.1754 231.305 31.8199 232.049 31.1089C232.817 30.4208 233.201 29.3084 233.201 27.7717V25.0538C232.601 25.9483 231.773 26.6823 230.717 27.2557C229.661 27.8061 228.425 28.0813 227.009 28.0813C225.353 28.0813 223.853 27.68 222.509 26.8772C221.165 26.0515 220.097 24.8933 219.305 23.4024C218.537 21.8887 218.153 20.1456 218.153 18.1731C218.153 16.2006 218.537 14.469 219.305 12.9782C220.097 11.4873 221.165 10.3405 222.509 9.53779C223.853 8.73504 225.353 8.33367 227.009 8.33367ZM233.201 18.2075C233.201 16.7396 232.769 15.5814 231.905 14.7327C231.065 13.8841 230.033 13.4598 228.809 13.4598C227.585 13.4598 226.541 13.8841 225.677 14.7327C224.837 15.5584 224.417 16.7052 224.417 18.1731C224.417 19.641 224.837 20.8107 225.677 21.6823C226.541 22.5309 227.585 22.9552 228.809 22.9552C230.033 22.9552 231.065 22.5309 231.905 21.6823C232.769 20.8336 233.201 19.6754 233.201 18.2075ZM262.746 17.8979C262.746 18.4483 262.71 19.0217 262.638 19.618H248.706C248.802 20.8107 249.198 21.7281 249.894 22.3703C250.614 22.9896 251.49 23.2992 252.522 23.2992C254.058 23.2992 255.126 22.68 255.726 21.4414H262.278C261.942 22.7029 261.33 23.8382 260.442 24.8474C259.578 25.8566 258.486 26.6479 257.166 27.2212C255.846 27.7946 254.37 28.0813 252.738 28.0813C250.77 28.0813 249.018 27.68 247.482 26.8772C245.946 26.0745 244.746 24.9277 243.882 23.4369C243.018 21.946 242.586 20.2029 242.586 18.2075C242.586 16.2121 243.006 14.469 243.846 12.9782C244.71 11.4873 245.91 10.3405 247.446 9.53779C248.982 8.73504 250.746 8.33367 252.738 8.33367C254.682 8.33367 256.41 8.72357 257.922 9.50339C259.434 10.2832 260.61 11.3956 261.45 12.8405C262.314 14.2855 262.746 15.9713 262.746 17.8979ZM256.446 16.3497C256.446 15.3405 256.086 14.5378 255.366 13.9415C254.646 13.3451 253.746 13.047 252.666 13.047C251.634 13.047 250.758 13.3337 250.038 13.9071C249.342 14.4804 248.91 15.2947 248.742 16.3497H256.446Z" fill="white"/>
</g>
<defs>
<clipPath id="clip0_2_208">
<rect width="263" height="37.2706" fill="white" transform="translate(0 0.0921021)"/>
</clipPath>
</defs>
</svg>
