<svg width="20" height="20" viewBox="0 0 20 20" fill="none" xmlns="http://www.w3.org/2000/svg">
<g clip-path="url(#clip0_10_714)">
<path d="M20 10C20 7.34784 18.9464 4.8043 17.0711 2.92893C15.1957 1.05357 12.6522 0 10 0C7.34784 0 4.8043 1.05357 2.92893 2.92893C1.05357 4.8043 0 7.34784 0 10C0 12.6522 1.05357 15.1957 2.92893 17.0711C4.8043 18.9464 7.34784 20 10 20C12.6522 20 15.1957 18.9464 17.0711 17.0711C18.9464 15.1957 20 12.6522 20 10ZM10 16.25V17.5H5.625C5.58598 17.5001 5.54707 17.5039 5.50875 17.5112C4.91651 17.1565 4.36814 16.7331 3.875 16.25H10ZM10 15H2.81875C2.54259 14.6041 2.29968 14.186 2.0925 13.75H10V15ZM1.6125 12.5C1.49027 12.0907 1.39835 11.6729 1.3375 11.25H10V12.5H1.6125ZM1.25 10C1.25 9.575 1.28 9.15875 1.3375 8.75H10V10H1.25ZM1.6125 7.5C1.74125 7.06875 1.90125 6.65 2.0925 6.25H10V7.5H1.6125ZM2.81875 5C3.13125 4.55 3.48625 4.1325 3.87625 3.75H10V5H2.81875ZM5.49 2.5C6.85112 1.67963 8.41077 1.24735 10 1.25V2.5H5.49Z" fill="url(#paint0_linear_10_714)"/>
</g>
<defs>
<linearGradient id="paint0_linear_10_714" x1="10" y1="0" x2="10" y2="20" gradientUnits="userSpaceOnUse">
<stop stop-color="#5E0DE1"/>
<stop offset="1" stop-color="#520EBF"/>
</linearGradient>
<clipPath id="clip0_10_714">
<rect width="20" height="20" fill="white"/>
</clipPath>
</defs>
</svg>
