<svg width="19" height="10" viewBox="0 0 19 10" fill="none" xmlns="http://www.w3.org/2000/svg">
<path fill-rule="evenodd" clip-rule="evenodd" d="M12.3157 0.368328C12.6645 -0.0598226 13.2944 -0.124098 13.7226 0.224766L18.6317 4.22477C18.8647 4.41467 19 4.69936 19 5C19 5.30064 18.8647 5.58533 18.6317 5.77524L13.7226 9.77524C13.2944 10.1241 12.6645 10.0598 12.3157 9.63167C11.9668 9.20352 12.0311 8.57363 12.4592 8.22477L15.1896 6H1C0.447715 6 0 5.55229 0 5C0 4.44772 0.447715 4 1 4H15.1896L12.4592 1.77524C12.0311 1.42637 11.9668 0.796478 12.3157 0.368328Z" fill="#210757"/>
</svg>
